<?xml version="1.0"?>
<svg version="1.1" xmlns="http://www.w3.org/2000/svg" xmlns:xlink="http://www.w3.org/1999/xlink" width="1080" height="540">
    <desc iVinci="yes" version="4.6" gridStep="20" showGrid="no" snapToGrid="no" codePlatform="0"/>
    <g id="Layer1" name="Layer 1" opacity="1">
        <g id="Shape1">
            <desc shapeID="1" type="0" basicInfo-basicType="0" basicInfo-roundedRectRadius="12" basicInfo-polygonSides="6" basicInfo-starPoints="5" bounding="rect(-458.586,-216.587,917.172,433.173)" text="" font-familyName="" font-pixelSize="20" font-bold="0" font-underline="0" font-alignment="1" strokeStyle="0" markerStart="0" markerEnd="0" shadowEnabled="0" shadowOffsetX="0" shadowOffsetY="2" shadowBlur="4" shadowOpacity="160" blurEnabled="0" blurRadius="4" transform="matrix(1,0,0,1,473.723,300.051)" pers-center="0,0" pers-size="0,0" pers-start="0,0" pers-end="0,0" locked="0" mesh="" flag=""/>
            <path id="shapePath1" d="M435.439,83.4645 L431.504,91.1551 L388.979,91.5283 L386.287,84.4032 L381.752,84.5502 L380.18,93.7676 L377.907,94.3444 L377.862,97.8165 C377.772,97.946 377.693,98.0782 377.624,98.2237 C351.057,152.207 319.84,218.09 278.472,273.253 C238.116,327.066 188.268,370.535 123.721,383.319 C120.894,384.061 119.586,384.323 116.528,387.91 C82.0763,388.512 48.1277,388.468 15.1367,387.243 L15.1367,516.638 L129.376,516.423 L129.376,454.638 L181.174,455.113 L181.174,516.049 L196.624,516.049 L196.624,436.723 L173.437,436.52 L173.437,433.421 L185.11,432.742 L185.11,436.44 L192.586,436.44 L192.586,431.996 C252.239,429.957 313.282,423.467 373.858,418.594 L372.897,495.839 L369.639,495.839 L369.639,513.018 L399.825,513.143 L399.701,495.76 L393.593,495.76 L392.598,445.941 C392.456,436.527 407.875,435.6 410.784,435.581 C419.628,435.522 430.054,436.254 431.062,444.968 L430.791,495.997 L424.243,495.997 L424.243,513.143 L454.768,513.143 L454.768,495.76 L451.884,495.76 L450.199,412.939 C462.914,412.323 475.252,411.967 487.227,411.842 C550.901,417.378 606.471,420.545 676.019,442.107 L675.307,499.266 L673.079,499.266 L673.079,510.96 L693.606,511.039 L693.516,499.209 L689.365,499.209 L688.686,465.325 C688.59,458.921 699.07,458.281 701.048,458.268 C707.059,458.228 714.149,458.73 714.834,464.658 L714.653,499.379 L710.197,499.379 L710.197,511.039 L730.951,511.039 L730.951,499.209 L728.983,499.209 L728.18,459.659 C740.2,463.925 752.524,468.342 765.717,472.88 L765.717,474.599 L765.264,474.599 L765.264,509.467 L772.107,509.467 L772.107,482.867 L779.266,482.923 L779.266,509.399 L832.851,508.981 L832.851,485.491 C855.458,493.033 883.974,501.447 907.043,508.066 L932.309,508.507 L932.309,500.171 C899.158,489.352 866.002,478.325 832.851,466.366 L832.851,461.152 L826.031,459.218 L814.71,459.218 L813.342,459.218 C810.5,458.159 807.657,457.082 804.814,456.006 L803.401,453.156 C803.277,452.901 803.117,452.664 802.926,452.455 C757.402,403.545 747.8,314.373 725.997,243.305 C725.336,241.609 724.081,239.138 723.69,238.046 L723.441,226.261 L721.383,224.236 C721.249,223.797 721.013,223.393 720.693,223.06 L720.591,218.842 L717.809,218.729 L715.14,223.965 L686.232,224.214 L684.4,219.373 L681.324,219.475 L681.041,221.126 C680.308,221.467 679.717,222.1 679.469,222.936 C669.416,256.865 657.016,293.343 641.83,323.242 C627.467,351.521 610.553,373.694 591.445,382.629 C580.13,376.192 568.767,365.388 557.72,351.38 C541.325,330.591 525.648,302.979 511.339,273.241 C483.548,215.487 460.904,149.751 447.315,109.873 C446.515,107.873 445.955,104.751 443.933,102.838 L443.729,94.5367 L439.703,90.6009 L439.533,83.6228 L435.439,83.4645 M377.692,111.309 L376.459,210.552 C364.014,233.004 350.535,254.682 335.982,274.678 C295.453,330.363 246.827,372.868 189.713,383.579 C187.992,384.386 187.263,385.192 186.366,385.999 C168.006,386.637 149.701,387.198 131.525,387.605 C194.715,372.857 243.688,329.371 283.143,276.759 C322.35,224.477 352.248,163.187 377.692,111.309 M412.209,116.195 C415.36,116.203 418.499,116.454 421.574,117.032 C417.493,126.611 413.236,136.271 408.828,145.939 C405.092,136.465 401.335,127.027 397.461,117.733 C397.974,117.571 398.506,117.403 399.09,117.247 C403.439,116.623 407.843,116.183 412.209,116.195 M444.227,118.886 C458.008,159.194 479.626,220.8 506.08,275.775 C520.499,305.74 536.311,333.661 553.139,354.999 C563.702,368.393 574.68,379.259 586.085,386.305 C571.367,384.216 556.843,382.639 542.554,381.487 C542.445,380.724 542.031,380.002 541.355,379.519 C499.051,349.273 470.973,298.28 446.715,241.45 L444.227,118.886 M427.115,118.909 C429.829,120.477 431.054,122.624 431.402,124.632 L431.187,177.256 L421.031,177.256 C417.962,169.319 414.895,161.374 411.802,153.46 C417.146,141.898 422.253,130.349 427.115,118.909 M392.168,120.244 C396.696,131.113 401.098,142.184 405.446,153.325 C401.727,161.318 397.891,169.306 393.933,177.256 L390.596,177.256 C391.245,154.744 389.384,146.495 389.986,124.066 C390.098,122.798 390.577,121.494 392.168,120.244 M408.398,160.902 C410.505,166.342 412.61,171.799 414.709,177.256 L400.504,177.256 C403.192,171.818 405.823,166.36 408.398,160.902 M412.876,199.061 C416.273,199.07 419.65,199.343 422.953,200.022 C423.157,200.064 423.346,200.123 423.542,200.169 C426.338,207.358 429.165,214.511 432.024,221.624 L431.854,274.124 L391.264,274.361 C391.912,251.849 390.051,229.35 390.653,206.921 C390.859,204.579 392.259,202.117 399.757,200.113 C404.106,199.489 408.51,199.049 412.876,199.061 M376.301,222.744 L374.344,380.095 C366.363,380.247 358.553,380.352 350.967,380.378 C303.664,381.365 255.487,383.448 207.549,385.23 C259.481,369.694 303.623,329.045 340.698,278.105 C353.379,260.681 365.233,242.032 376.301,222.744 M702.156,240.839 C704.475,240.845 706.777,241.041 709.032,241.506 C709.382,241.578 709.713,241.665 710.028,241.755 C706.497,252.482 702.808,263.599 698.876,274.768 C696.376,264.211 693.899,253.525 691.469,242.66 C691.439,242.485 691.391,242.314 691.333,242.151 C691.886,241.953 692.498,241.751 693.199,241.563 C696.168,241.136 699.175,240.831 702.156,240.839 M714.936,245.544 C715.085,245.904 715.191,246.262 715.253,246.618 L715.106,282.651 L702.292,282.651 C706.798,270.124 710.98,257.568 714.936,245.544 M678.451,246.109 L677.433,328.048 C675.941,331.163 674.418,334.209 672.864,337.175 C664.063,353.967 654.255,368.15 643.448,377.392 C632.64,386.635 621.083,390.999 607.811,388.781 C604.541,388.223 601.255,387.226 597.96,385.852 C617.339,375.028 633.355,352.84 647.044,325.888 C659.302,301.754 669.653,273.683 678.451,246.109 M686.922,248.993 C689.496,260.39 692.115,271.598 694.771,282.651 L687.397,282.651 C687.812,268.2 686.722,262.325 686.922,248.993 M447.032,257.261 C469.252,307.107 495.451,351.78 533.291,380.808 C504.234,378.8 476.188,378.396 449.497,378.614 L447.032,257.261 M724.074,257.532 C742.578,323.681 753.204,403.571 794.918,452.24 C708.839,428.009 745.143,356.048 724.074,257.532 M413.408,296.098 C416.804,296.108 420.17,296.419 423.474,297.173 C429.677,298.587 432.08,302.185 432.589,305.451 L432.386,378.84 C418.436,379.073 404.892,379.415 391.807,379.722 C392.419,354.901 390.576,329.54 391.173,304.818 C391.38,302.22 392.791,299.486 400.289,297.263 C404.637,296.571 409.042,296.085 413.408,296.098 M704.486,297.704 C706.105,297.793 707.709,297.977 709.293,298.304 C713.528,299.177 715.165,301.4 715.513,303.416 L715.411,338.069 C711.618,325.138 707.991,311.631 704.486,297.704 M698.458,297.795 C702.916,315.635 707.572,332.821 712.55,349.05 L687.668,349.197 C687.943,339.624 687.555,330.059 687.318,320.505 C690.551,313.192 693.627,305.633 696.581,297.964 C697.207,297.898 697.831,297.843 698.458,297.795 M689.58,299.853 C688.79,301.864 687.99,303.861 687.182,305.847 C687.195,304.91 687.214,303.968 687.239,303.031 C687.332,301.97 687.802,300.874 689.58,299.853 M677.264,341.315 L676.461,406.096 C659.71,401.007 643.107,396.815 626.687,393.384 C634.049,391.237 640.923,387.235 647.248,381.826 C658.63,372.092 668.46,357.865 677.264,341.315 M702.846,363.957 C705.165,363.963 707.467,364.176 709.722,364.692 C713.957,365.66 715.595,368.132 715.943,370.369 L715.796,419.691 C706.552,416.094 697.342,412.795 688.166,409.783 C688.04,396.488 687.352,383.072 687.668,369.928 C687.809,368.149 688.77,366.282 693.889,364.76 C696.858,364.286 699.865,363.948 702.846,363.957 M726.766,390.025 C733.19,406.17 740.201,420.731 747.983,433.251 C745.993,432.405 744.002,431.553 742.012,430.695 C737.155,428.503 732.311,426.412 727.467,424.396 L726.766,390.025 M169.865,433.556 L169.865,436.497 L138.232,436.237 L139.453,435.162 C149.548,434.659 159.674,434.112 169.865,433.556 M770.173,473.152 L779.266,473.683 L779.266,474.713 L770.173,474.645 L770.173,473.152 Z" style="stroke:none;fill-rule:nonzero;fill:#ffffff;fill-opacity:1;"/>
        </g>
    </g>
</svg>
